# xmcd
#
# Track frame offsets:
#	150
#	13788
#	29637
#	45001
#	62430
#	80838
#	95314
#	109204
#	125144
#	138918
#
# Disc length: 2104 seconds
#
# Revision: 1
# Processed by: cddbd v1.4b42PL0 Copyright (c) Steve Scherf et al.
# Submitted via: audiograbber 1.80
#
DISCID=8008360a
DTITLE=Arne Benoni - One Life Stand
DYEAR=1900
DGENRE=
TTITLE0=One Life Stand
TTITLE1=Even If I Do
TTITLE2=Stand Back
TTITLE3=One Life
TTITLE4=She Misses Him
TTITLE5=Sentimental Girl
TTITLE6=In The Arms Of Yesterday
TTITLE7=My Life Did Not Begin
TTITLE8=I've Lost All Of My Senses
TTITLE9=10 000 Acres
EXTD=
EXTT0=
EXTT1=
EXTT2=
EXTT3=
EXTT4=
EXTT5=
EXTT6=
EXTT7=
EXTT8=
EXTT9=
PLAYORDER=
